<mxfile host="Electron" agent="Mozilla/5.0 (Windows NT 10.0; Win64; x64) AppleWebKit/537.36 (KHTML, like Gecko) draw.io/25.0.1 Chrome/128.0.6613.186 Electron/32.2.6 Safari/537.36" version="25.0.1">
  <diagram id="C5RBs43oDa-KdzZeNtuy" name="Page-1">
    <mxGraphModel dx="2440" dy="1840" grid="1" gridSize="10" guides="1" tooltips="1" connect="1" arrows="1" fold="1" page="1" pageScale="1" pageWidth="827" pageHeight="1169" math="0" shadow="0">
      <root>
        <mxCell id="WIyWlLk6GJQsqaUBKTNV-0" />
        <mxCell id="WIyWlLk6GJQsqaUBKTNV-1" parent="WIyWlLk6GJQsqaUBKTNV-0" />
        <mxCell id="mkPjGn4Q-l5WFXyPitFY-10" style="edgeStyle=orthogonalEdgeStyle;rounded=0;orthogonalLoop=1;jettySize=auto;html=1;entryX=0.5;entryY=0;entryDx=0;entryDy=0;" edge="1" parent="WIyWlLk6GJQsqaUBKTNV-1" source="WIyWlLk6GJQsqaUBKTNV-3" target="mkPjGn4Q-l5WFXyPitFY-2">
          <mxGeometry relative="1" as="geometry" />
        </mxCell>
        <mxCell id="WIyWlLk6GJQsqaUBKTNV-3" value="Начало" style="rounded=1;whiteSpace=wrap;html=1;fontSize=12;glass=0;strokeWidth=1;shadow=0;" parent="WIyWlLk6GJQsqaUBKTNV-1" vertex="1">
          <mxGeometry x="120" y="90" width="120" height="40" as="geometry" />
        </mxCell>
        <mxCell id="WIyWlLk6GJQsqaUBKTNV-11" value="Конец" style="rounded=1;whiteSpace=wrap;html=1;fontSize=12;glass=0;strokeWidth=1;shadow=0;" parent="WIyWlLk6GJQsqaUBKTNV-1" vertex="1">
          <mxGeometry x="120" y="730" width="120" height="40" as="geometry" />
        </mxCell>
        <mxCell id="mkPjGn4Q-l5WFXyPitFY-11" style="edgeStyle=orthogonalEdgeStyle;rounded=0;orthogonalLoop=1;jettySize=auto;html=1;exitX=0.5;exitY=1;exitDx=0;exitDy=0;entryX=0.5;entryY=0;entryDx=0;entryDy=0;" edge="1" parent="WIyWlLk6GJQsqaUBKTNV-1" source="mkPjGn4Q-l5WFXyPitFY-2" target="mkPjGn4Q-l5WFXyPitFY-3">
          <mxGeometry relative="1" as="geometry" />
        </mxCell>
        <mxCell id="mkPjGn4Q-l5WFXyPitFY-2" value="Создание/Редактирование модели" style="rounded=0;whiteSpace=wrap;html=1;" vertex="1" parent="WIyWlLk6GJQsqaUBKTNV-1">
          <mxGeometry x="120" y="160" width="120" height="60" as="geometry" />
        </mxCell>
        <mxCell id="mkPjGn4Q-l5WFXyPitFY-12" style="edgeStyle=orthogonalEdgeStyle;rounded=0;orthogonalLoop=1;jettySize=auto;html=1;exitX=0.5;exitY=1;exitDx=0;exitDy=0;" edge="1" parent="WIyWlLk6GJQsqaUBKTNV-1" source="mkPjGn4Q-l5WFXyPitFY-3" target="mkPjGn4Q-l5WFXyPitFY-4">
          <mxGeometry relative="1" as="geometry" />
        </mxCell>
        <mxCell id="mkPjGn4Q-l5WFXyPitFY-3" value="Анализ надежности ракетоносителя" style="rounded=0;whiteSpace=wrap;html=1;" vertex="1" parent="WIyWlLk6GJQsqaUBKTNV-1">
          <mxGeometry x="120" y="240" width="120" height="60" as="geometry" />
        </mxCell>
        <mxCell id="mkPjGn4Q-l5WFXyPitFY-13" style="edgeStyle=orthogonalEdgeStyle;rounded=0;orthogonalLoop=1;jettySize=auto;html=1;exitX=0.5;exitY=1;exitDx=0;exitDy=0;entryX=0.5;entryY=0;entryDx=0;entryDy=0;" edge="1" parent="WIyWlLk6GJQsqaUBKTNV-1" source="mkPjGn4Q-l5WFXyPitFY-4" target="mkPjGn4Q-l5WFXyPitFY-6">
          <mxGeometry relative="1" as="geometry" />
        </mxCell>
        <mxCell id="mkPjGn4Q-l5WFXyPitFY-4" value="Анализ состояния экипажа" style="rounded=0;whiteSpace=wrap;html=1;" vertex="1" parent="WIyWlLk6GJQsqaUBKTNV-1">
          <mxGeometry x="120" y="320" width="120" height="60" as="geometry" />
        </mxCell>
        <mxCell id="mkPjGn4Q-l5WFXyPitFY-14" style="edgeStyle=orthogonalEdgeStyle;rounded=0;orthogonalLoop=1;jettySize=auto;html=1;exitX=0.5;exitY=1;exitDx=0;exitDy=0;entryX=0.5;entryY=0;entryDx=0;entryDy=0;" edge="1" parent="WIyWlLk6GJQsqaUBKTNV-1" source="mkPjGn4Q-l5WFXyPitFY-6" target="mkPjGn4Q-l5WFXyPitFY-7">
          <mxGeometry relative="1" as="geometry" />
        </mxCell>
        <mxCell id="mkPjGn4Q-l5WFXyPitFY-6" value="Оценка внешних условий" style="rounded=0;whiteSpace=wrap;html=1;" vertex="1" parent="WIyWlLk6GJQsqaUBKTNV-1">
          <mxGeometry x="120" y="400" width="120" height="60" as="geometry" />
        </mxCell>
        <mxCell id="mkPjGn4Q-l5WFXyPitFY-15" style="edgeStyle=orthogonalEdgeStyle;rounded=0;orthogonalLoop=1;jettySize=auto;html=1;exitX=0.5;exitY=1;exitDx=0;exitDy=0;entryX=0.5;entryY=0;entryDx=0;entryDy=0;" edge="1" parent="WIyWlLk6GJQsqaUBKTNV-1" source="mkPjGn4Q-l5WFXyPitFY-7" target="mkPjGn4Q-l5WFXyPitFY-8">
          <mxGeometry relative="1" as="geometry" />
        </mxCell>
        <mxCell id="mkPjGn4Q-l5WFXyPitFY-7" value="Симуляция аварийных ситуаций&lt;div&gt;(Графическое представление)&lt;/div&gt;" style="rounded=0;whiteSpace=wrap;html=1;" vertex="1" parent="WIyWlLk6GJQsqaUBKTNV-1">
          <mxGeometry x="120" y="480" width="120" height="60" as="geometry" />
        </mxCell>
        <mxCell id="mkPjGn4Q-l5WFXyPitFY-16" style="edgeStyle=orthogonalEdgeStyle;rounded=0;orthogonalLoop=1;jettySize=auto;html=1;exitX=0.5;exitY=1;exitDx=0;exitDy=0;entryX=0.5;entryY=0;entryDx=0;entryDy=0;" edge="1" parent="WIyWlLk6GJQsqaUBKTNV-1" source="mkPjGn4Q-l5WFXyPitFY-8" target="mkPjGn4Q-l5WFXyPitFY-9">
          <mxGeometry relative="1" as="geometry" />
        </mxCell>
        <mxCell id="mkPjGn4Q-l5WFXyPitFY-8" value="Оценка общей безопасности" style="rounded=0;whiteSpace=wrap;html=1;" vertex="1" parent="WIyWlLk6GJQsqaUBKTNV-1">
          <mxGeometry x="120" y="560" width="120" height="60" as="geometry" />
        </mxCell>
        <mxCell id="mkPjGn4Q-l5WFXyPitFY-17" style="edgeStyle=orthogonalEdgeStyle;rounded=0;orthogonalLoop=1;jettySize=auto;html=1;exitX=0.5;exitY=1;exitDx=0;exitDy=0;entryX=0.5;entryY=0;entryDx=0;entryDy=0;" edge="1" parent="WIyWlLk6GJQsqaUBKTNV-1" source="mkPjGn4Q-l5WFXyPitFY-9" target="WIyWlLk6GJQsqaUBKTNV-11">
          <mxGeometry relative="1" as="geometry" />
        </mxCell>
        <mxCell id="mkPjGn4Q-l5WFXyPitFY-9" value="Выводы и рекомендации" style="rounded=0;whiteSpace=wrap;html=1;" vertex="1" parent="WIyWlLk6GJQsqaUBKTNV-1">
          <mxGeometry x="120" y="640" width="120" height="60" as="geometry" />
        </mxCell>
        <mxCell id="mkPjGn4Q-l5WFXyPitFY-51" style="edgeStyle=orthogonalEdgeStyle;rounded=0;orthogonalLoop=1;jettySize=auto;html=1;exitX=0.5;exitY=1;exitDx=0;exitDy=0;entryX=0.5;entryY=0;entryDx=0;entryDy=0;" edge="1" parent="WIyWlLk6GJQsqaUBKTNV-1" source="mkPjGn4Q-l5WFXyPitFY-19" target="mkPjGn4Q-l5WFXyPitFY-22">
          <mxGeometry relative="1" as="geometry" />
        </mxCell>
        <mxCell id="mkPjGn4Q-l5WFXyPitFY-19" value="Начало" style="rounded=1;whiteSpace=wrap;html=1;fontSize=12;glass=0;strokeWidth=1;shadow=0;" vertex="1" parent="WIyWlLk6GJQsqaUBKTNV-1">
          <mxGeometry x="680" y="30" width="120" height="40" as="geometry" />
        </mxCell>
        <mxCell id="mkPjGn4Q-l5WFXyPitFY-20" value="Конец" style="rounded=1;whiteSpace=wrap;html=1;fontSize=12;glass=0;strokeWidth=1;shadow=0;" vertex="1" parent="WIyWlLk6GJQsqaUBKTNV-1">
          <mxGeometry x="680" y="2040" width="120" height="40" as="geometry" />
        </mxCell>
        <mxCell id="mkPjGn4Q-l5WFXyPitFY-30" style="edgeStyle=orthogonalEdgeStyle;rounded=0;orthogonalLoop=1;jettySize=auto;html=1;endArrow=none;endFill=0;" edge="1" parent="WIyWlLk6GJQsqaUBKTNV-1" source="mkPjGn4Q-l5WFXyPitFY-22">
          <mxGeometry relative="1" as="geometry">
            <mxPoint x="740" y="240" as="targetPoint" />
          </mxGeometry>
        </mxCell>
        <mxCell id="mkPjGn4Q-l5WFXyPitFY-22" value="Загрузка входных данных" style="rounded=0;whiteSpace=wrap;html=1;" vertex="1" parent="WIyWlLk6GJQsqaUBKTNV-1">
          <mxGeometry x="680" y="150" width="120" height="60" as="geometry" />
        </mxCell>
        <mxCell id="mkPjGn4Q-l5WFXyPitFY-31" style="edgeStyle=orthogonalEdgeStyle;rounded=0;orthogonalLoop=1;jettySize=auto;html=1;exitX=0.5;exitY=0;exitDx=0;exitDy=0;entryX=0.5;entryY=0;entryDx=0;entryDy=0;" edge="1" parent="WIyWlLk6GJQsqaUBKTNV-1" target="mkPjGn4Q-l5WFXyPitFY-24">
          <mxGeometry relative="1" as="geometry">
            <mxPoint x="420" y="240" as="sourcePoint" />
          </mxGeometry>
        </mxCell>
        <mxCell id="mkPjGn4Q-l5WFXyPitFY-43" style="edgeStyle=orthogonalEdgeStyle;rounded=0;orthogonalLoop=1;jettySize=auto;html=1;exitX=0.5;exitY=1;exitDx=0;exitDy=0;" edge="1" parent="WIyWlLk6GJQsqaUBKTNV-1" source="mkPjGn4Q-l5WFXyPitFY-24">
          <mxGeometry relative="1" as="geometry">
            <mxPoint x="420.2413793103449" y="390.0000000000001" as="targetPoint" />
          </mxGeometry>
        </mxCell>
        <mxCell id="mkPjGn4Q-l5WFXyPitFY-24" value="Параметры ракеты (масса, тяга, системы)." style="rounded=0;whiteSpace=wrap;html=1;" vertex="1" parent="WIyWlLk6GJQsqaUBKTNV-1">
          <mxGeometry x="360" y="290" width="120" height="60" as="geometry" />
        </mxCell>
        <mxCell id="mkPjGn4Q-l5WFXyPitFY-32" style="edgeStyle=orthogonalEdgeStyle;rounded=0;orthogonalLoop=1;jettySize=auto;html=1;" edge="1" parent="WIyWlLk6GJQsqaUBKTNV-1" target="mkPjGn4Q-l5WFXyPitFY-25">
          <mxGeometry relative="1" as="geometry">
            <mxPoint x="580" y="240" as="sourcePoint" />
          </mxGeometry>
        </mxCell>
        <mxCell id="mkPjGn4Q-l5WFXyPitFY-44" style="edgeStyle=orthogonalEdgeStyle;rounded=0;orthogonalLoop=1;jettySize=auto;html=1;exitX=0.5;exitY=1;exitDx=0;exitDy=0;" edge="1" parent="WIyWlLk6GJQsqaUBKTNV-1" source="mkPjGn4Q-l5WFXyPitFY-25">
          <mxGeometry relative="1" as="geometry">
            <mxPoint x="580.2413793103449" y="390.0000000000001" as="targetPoint" />
          </mxGeometry>
        </mxCell>
        <mxCell id="mkPjGn4Q-l5WFXyPitFY-25" value="Параметры стартовой площадки (погода, оборудование)" style="rounded=0;whiteSpace=wrap;html=1;" vertex="1" parent="WIyWlLk6GJQsqaUBKTNV-1">
          <mxGeometry x="520" y="290" width="120" height="60" as="geometry" />
        </mxCell>
        <mxCell id="mkPjGn4Q-l5WFXyPitFY-33" style="edgeStyle=orthogonalEdgeStyle;rounded=0;orthogonalLoop=1;jettySize=auto;html=1;exitX=0.5;exitY=0;exitDx=0;exitDy=0;entryX=0.5;entryY=0;entryDx=0;entryDy=0;" edge="1" parent="WIyWlLk6GJQsqaUBKTNV-1" target="mkPjGn4Q-l5WFXyPitFY-26">
          <mxGeometry relative="1" as="geometry">
            <mxPoint x="740" y="240" as="sourcePoint" />
          </mxGeometry>
        </mxCell>
        <mxCell id="mkPjGn4Q-l5WFXyPitFY-45" style="edgeStyle=orthogonalEdgeStyle;rounded=0;orthogonalLoop=1;jettySize=auto;html=1;exitX=0.5;exitY=1;exitDx=0;exitDy=0;" edge="1" parent="WIyWlLk6GJQsqaUBKTNV-1" source="mkPjGn4Q-l5WFXyPitFY-26">
          <mxGeometry relative="1" as="geometry">
            <mxPoint x="740.2413793103449" y="390.0000000000001" as="targetPoint" />
          </mxGeometry>
        </mxCell>
        <mxCell id="mkPjGn4Q-l5WFXyPitFY-26" value="Параметры экипажа (здоровье, подготовка)." style="rounded=0;whiteSpace=wrap;html=1;" vertex="1" parent="WIyWlLk6GJQsqaUBKTNV-1">
          <mxGeometry x="680" y="290" width="120" height="60" as="geometry" />
        </mxCell>
        <mxCell id="mkPjGn4Q-l5WFXyPitFY-34" style="edgeStyle=orthogonalEdgeStyle;rounded=0;orthogonalLoop=1;jettySize=auto;html=1;exitX=0.5;exitY=0;exitDx=0;exitDy=0;entryX=0.5;entryY=0;entryDx=0;entryDy=0;" edge="1" parent="WIyWlLk6GJQsqaUBKTNV-1" target="mkPjGn4Q-l5WFXyPitFY-27">
          <mxGeometry relative="1" as="geometry">
            <mxPoint x="900" y="240" as="sourcePoint" />
          </mxGeometry>
        </mxCell>
        <mxCell id="mkPjGn4Q-l5WFXyPitFY-46" style="edgeStyle=orthogonalEdgeStyle;rounded=0;orthogonalLoop=1;jettySize=auto;html=1;exitX=0.5;exitY=1;exitDx=0;exitDy=0;" edge="1" parent="WIyWlLk6GJQsqaUBKTNV-1" source="mkPjGn4Q-l5WFXyPitFY-27">
          <mxGeometry relative="1" as="geometry">
            <mxPoint x="900.2413793103449" y="390.0000000000001" as="targetPoint" />
          </mxGeometry>
        </mxCell>
        <mxCell id="mkPjGn4Q-l5WFXyPitFY-27" value="Параметры внешней среды (погода, солнечная активность)." style="rounded=0;whiteSpace=wrap;html=1;" vertex="1" parent="WIyWlLk6GJQsqaUBKTNV-1">
          <mxGeometry x="840" y="290" width="120" height="60" as="geometry" />
        </mxCell>
        <mxCell id="mkPjGn4Q-l5WFXyPitFY-35" style="edgeStyle=orthogonalEdgeStyle;rounded=0;orthogonalLoop=1;jettySize=auto;html=1;" edge="1" parent="WIyWlLk6GJQsqaUBKTNV-1" target="mkPjGn4Q-l5WFXyPitFY-28">
          <mxGeometry relative="1" as="geometry">
            <mxPoint x="1060" y="240" as="sourcePoint" />
          </mxGeometry>
        </mxCell>
        <mxCell id="mkPjGn4Q-l5WFXyPitFY-47" style="edgeStyle=orthogonalEdgeStyle;rounded=0;orthogonalLoop=1;jettySize=auto;html=1;" edge="1" parent="WIyWlLk6GJQsqaUBKTNV-1" source="mkPjGn4Q-l5WFXyPitFY-28">
          <mxGeometry relative="1" as="geometry">
            <mxPoint x="1060.0000000000002" y="390.0000000000001" as="targetPoint" />
          </mxGeometry>
        </mxCell>
        <mxCell id="mkPjGn4Q-l5WFXyPitFY-28" value="&#xa;Технические параметры систем (навигация, управление, связь).&#xa;&#xa;" style="rounded=0;whiteSpace=wrap;html=1;" vertex="1" parent="WIyWlLk6GJQsqaUBKTNV-1">
          <mxGeometry x="1000" y="285" width="120" height="70" as="geometry" />
        </mxCell>
        <mxCell id="mkPjGn4Q-l5WFXyPitFY-29" value="" style="shape=link;html=1;rounded=0;" edge="1" parent="WIyWlLk6GJQsqaUBKTNV-1">
          <mxGeometry width="100" relative="1" as="geometry">
            <mxPoint x="360" y="240" as="sourcePoint" />
            <mxPoint x="1120" y="240" as="targetPoint" />
          </mxGeometry>
        </mxCell>
        <mxCell id="mkPjGn4Q-l5WFXyPitFY-48" style="edgeStyle=orthogonalEdgeStyle;rounded=0;orthogonalLoop=1;jettySize=auto;html=1;entryX=0.5;entryY=0;entryDx=0;entryDy=0;" edge="1" parent="WIyWlLk6GJQsqaUBKTNV-1" target="mkPjGn4Q-l5WFXyPitFY-36">
          <mxGeometry relative="1" as="geometry">
            <mxPoint x="605" y="440" as="targetPoint" />
            <mxPoint x="600" y="390" as="sourcePoint" />
          </mxGeometry>
        </mxCell>
        <mxCell id="mkPjGn4Q-l5WFXyPitFY-52" style="edgeStyle=orthogonalEdgeStyle;rounded=0;orthogonalLoop=1;jettySize=auto;html=1;entryX=0.5;entryY=0;entryDx=0;entryDy=0;" edge="1" parent="WIyWlLk6GJQsqaUBKTNV-1" source="mkPjGn4Q-l5WFXyPitFY-36" target="mkPjGn4Q-l5WFXyPitFY-22">
          <mxGeometry relative="1" as="geometry">
            <Array as="points">
              <mxPoint x="340" y="480" />
              <mxPoint x="340" y="110" />
              <mxPoint x="740" y="110" />
            </Array>
          </mxGeometry>
        </mxCell>
        <mxCell id="mkPjGn4Q-l5WFXyPitFY-57" value="Недостаточно надёжно" style="edgeLabel;html=1;align=center;verticalAlign=middle;resizable=0;points=[];" vertex="1" connectable="0" parent="mkPjGn4Q-l5WFXyPitFY-52">
          <mxGeometry x="-0.8129" y="-1" relative="1" as="geometry">
            <mxPoint as="offset" />
          </mxGeometry>
        </mxCell>
        <mxCell id="mkPjGn4Q-l5WFXyPitFY-55" style="edgeStyle=orthogonalEdgeStyle;rounded=0;orthogonalLoop=1;jettySize=auto;html=1;entryX=0.5;entryY=0;entryDx=0;entryDy=0;" edge="1" parent="WIyWlLk6GJQsqaUBKTNV-1" source="mkPjGn4Q-l5WFXyPitFY-36" target="mkPjGn4Q-l5WFXyPitFY-54">
          <mxGeometry relative="1" as="geometry">
            <Array as="points">
              <mxPoint x="720" y="480" />
              <mxPoint x="720" y="570" />
              <mxPoint x="600" y="570" />
            </Array>
          </mxGeometry>
        </mxCell>
        <mxCell id="mkPjGn4Q-l5WFXyPitFY-59" value="Надёжно" style="edgeLabel;html=1;align=center;verticalAlign=middle;resizable=0;points=[];" vertex="1" connectable="0" parent="mkPjGn4Q-l5WFXyPitFY-55">
          <mxGeometry x="0.6914" y="-2" relative="1" as="geometry">
            <mxPoint as="offset" />
          </mxGeometry>
        </mxCell>
        <mxCell id="mkPjGn4Q-l5WFXyPitFY-49" style="edgeStyle=orthogonalEdgeStyle;rounded=0;orthogonalLoop=1;jettySize=auto;html=1;entryX=0.5;entryY=0;entryDx=0;entryDy=0;" edge="1" parent="WIyWlLk6GJQsqaUBKTNV-1" target="mkPjGn4Q-l5WFXyPitFY-38">
          <mxGeometry relative="1" as="geometry">
            <mxPoint x="875" y="440" as="targetPoint" />
            <mxPoint x="885" y="390" as="sourcePoint" />
          </mxGeometry>
        </mxCell>
        <mxCell id="mkPjGn4Q-l5WFXyPitFY-36" value="Анализ надёжности ракеты" style="rhombus;whiteSpace=wrap;html=1;" vertex="1" parent="WIyWlLk6GJQsqaUBKTNV-1">
          <mxGeometry x="525" y="440" width="150" height="80" as="geometry" />
        </mxCell>
        <mxCell id="mkPjGn4Q-l5WFXyPitFY-53" style="edgeStyle=orthogonalEdgeStyle;rounded=0;orthogonalLoop=1;jettySize=auto;html=1;entryX=0.5;entryY=0;entryDx=0;entryDy=0;" edge="1" parent="WIyWlLk6GJQsqaUBKTNV-1" source="mkPjGn4Q-l5WFXyPitFY-38" target="mkPjGn4Q-l5WFXyPitFY-22">
          <mxGeometry relative="1" as="geometry">
            <Array as="points">
              <mxPoint x="780" y="480" />
              <mxPoint x="780" y="540" />
              <mxPoint x="340" y="540" />
              <mxPoint x="340" y="110" />
              <mxPoint x="740" y="110" />
            </Array>
          </mxGeometry>
        </mxCell>
        <mxCell id="mkPjGn4Q-l5WFXyPitFY-58" value="Недостаточно надёжно" style="edgeLabel;html=1;align=center;verticalAlign=middle;resizable=0;points=[];" vertex="1" connectable="0" parent="mkPjGn4Q-l5WFXyPitFY-53">
          <mxGeometry x="-0.3772" y="1" relative="1" as="geometry">
            <mxPoint as="offset" />
          </mxGeometry>
        </mxCell>
        <mxCell id="mkPjGn4Q-l5WFXyPitFY-63" style="edgeStyle=orthogonalEdgeStyle;rounded=0;orthogonalLoop=1;jettySize=auto;html=1;entryX=0.5;entryY=0;entryDx=0;entryDy=0;" edge="1" parent="WIyWlLk6GJQsqaUBKTNV-1" source="mkPjGn4Q-l5WFXyPitFY-38" target="mkPjGn4Q-l5WFXyPitFY-61">
          <mxGeometry relative="1" as="geometry">
            <Array as="points">
              <mxPoint x="990" y="480" />
              <mxPoint x="990" y="540" />
              <mxPoint x="885" y="540" />
            </Array>
          </mxGeometry>
        </mxCell>
        <mxCell id="mkPjGn4Q-l5WFXyPitFY-64" value="Надёжно" style="edgeLabel;html=1;align=center;verticalAlign=middle;resizable=0;points=[];" vertex="1" connectable="0" parent="mkPjGn4Q-l5WFXyPitFY-63">
          <mxGeometry x="0.1941" y="1" relative="1" as="geometry">
            <mxPoint as="offset" />
          </mxGeometry>
        </mxCell>
        <mxCell id="mkPjGn4Q-l5WFXyPitFY-38" value="Анализ состояния экипажа" style="rhombus;whiteSpace=wrap;html=1;" vertex="1" parent="WIyWlLk6GJQsqaUBKTNV-1">
          <mxGeometry x="810" y="440" width="150" height="80" as="geometry" />
        </mxCell>
        <mxCell id="mkPjGn4Q-l5WFXyPitFY-42" value="" style="shape=link;html=1;rounded=0;" edge="1" parent="WIyWlLk6GJQsqaUBKTNV-1">
          <mxGeometry width="100" relative="1" as="geometry">
            <mxPoint x="360" y="390" as="sourcePoint" />
            <mxPoint x="1120" y="390" as="targetPoint" />
          </mxGeometry>
        </mxCell>
        <mxCell id="mkPjGn4Q-l5WFXyPitFY-66" style="edgeStyle=orthogonalEdgeStyle;rounded=0;orthogonalLoop=1;jettySize=auto;html=1;exitX=0.5;exitY=1;exitDx=0;exitDy=0;entryX=0.5;entryY=0;entryDx=0;entryDy=0;" edge="1" parent="WIyWlLk6GJQsqaUBKTNV-1" source="mkPjGn4Q-l5WFXyPitFY-54" target="mkPjGn4Q-l5WFXyPitFY-60">
          <mxGeometry relative="1" as="geometry" />
        </mxCell>
        <mxCell id="mkPjGn4Q-l5WFXyPitFY-54" value="Оценка вероятности&lt;b&gt; &lt;/b&gt;отказа на каждом этапе" style="rounded=0;whiteSpace=wrap;html=1;" vertex="1" parent="WIyWlLk6GJQsqaUBKTNV-1">
          <mxGeometry x="540" y="650" width="120" height="60" as="geometry" />
        </mxCell>
        <mxCell id="mkPjGn4Q-l5WFXyPitFY-69" style="edgeStyle=orthogonalEdgeStyle;rounded=0;orthogonalLoop=1;jettySize=auto;html=1;" edge="1" parent="WIyWlLk6GJQsqaUBKTNV-1" source="mkPjGn4Q-l5WFXyPitFY-60">
          <mxGeometry relative="1" as="geometry">
            <mxPoint x="600" y="870" as="targetPoint" />
          </mxGeometry>
        </mxCell>
        <mxCell id="mkPjGn4Q-l5WFXyPitFY-60" value="Прогноз отказа на основе анализа данных с датчиков ракеты" style="rounded=0;whiteSpace=wrap;html=1;" vertex="1" parent="WIyWlLk6GJQsqaUBKTNV-1">
          <mxGeometry x="540" y="740" width="120" height="60" as="geometry" />
        </mxCell>
        <mxCell id="mkPjGn4Q-l5WFXyPitFY-65" style="edgeStyle=orthogonalEdgeStyle;rounded=0;orthogonalLoop=1;jettySize=auto;html=1;entryX=0.5;entryY=0;entryDx=0;entryDy=0;" edge="1" parent="WIyWlLk6GJQsqaUBKTNV-1" source="mkPjGn4Q-l5WFXyPitFY-61" target="mkPjGn4Q-l5WFXyPitFY-62">
          <mxGeometry relative="1" as="geometry" />
        </mxCell>
        <mxCell id="mkPjGn4Q-l5WFXyPitFY-61" value="Оценка давления, кислорода, температуры, состояния здоровья экипажа на разных этапах (старт, полет)" style="rounded=0;whiteSpace=wrap;html=1;" vertex="1" parent="WIyWlLk6GJQsqaUBKTNV-1">
          <mxGeometry x="825" y="600" width="120" height="100" as="geometry" />
        </mxCell>
        <mxCell id="mkPjGn4Q-l5WFXyPitFY-70" style="edgeStyle=orthogonalEdgeStyle;rounded=0;orthogonalLoop=1;jettySize=auto;html=1;" edge="1" parent="WIyWlLk6GJQsqaUBKTNV-1" source="mkPjGn4Q-l5WFXyPitFY-62">
          <mxGeometry relative="1" as="geometry">
            <mxPoint x="885" y="870" as="targetPoint" />
          </mxGeometry>
        </mxCell>
        <mxCell id="mkPjGn4Q-l5WFXyPitFY-62" value="Оценка рисков для здоровья" style="rounded=0;whiteSpace=wrap;html=1;" vertex="1" parent="WIyWlLk6GJQsqaUBKTNV-1">
          <mxGeometry x="825" y="740" width="120" height="60" as="geometry" />
        </mxCell>
        <mxCell id="mkPjGn4Q-l5WFXyPitFY-68" value="" style="shape=link;html=1;rounded=0;" edge="1" parent="WIyWlLk6GJQsqaUBKTNV-1">
          <mxGeometry width="100" relative="1" as="geometry">
            <mxPoint x="470" y="870" as="sourcePoint" />
            <mxPoint x="1010" y="870" as="targetPoint" />
          </mxGeometry>
        </mxCell>
        <mxCell id="mkPjGn4Q-l5WFXyPitFY-72" style="edgeStyle=orthogonalEdgeStyle;rounded=0;orthogonalLoop=1;jettySize=auto;html=1;" edge="1" parent="WIyWlLk6GJQsqaUBKTNV-1" target="mkPjGn4Q-l5WFXyPitFY-71">
          <mxGeometry relative="1" as="geometry">
            <mxPoint x="740" y="870" as="sourcePoint" />
          </mxGeometry>
        </mxCell>
        <mxCell id="mkPjGn4Q-l5WFXyPitFY-76" style="edgeStyle=orthogonalEdgeStyle;rounded=0;orthogonalLoop=1;jettySize=auto;html=1;entryX=0.5;entryY=0;entryDx=0;entryDy=0;" edge="1" parent="WIyWlLk6GJQsqaUBKTNV-1" source="mkPjGn4Q-l5WFXyPitFY-71" target="mkPjGn4Q-l5WFXyPitFY-75">
          <mxGeometry relative="1" as="geometry" />
        </mxCell>
        <mxCell id="mkPjGn4Q-l5WFXyPitFY-71" value="Оценка внешних условий" style="rounded=0;whiteSpace=wrap;html=1;" vertex="1" parent="WIyWlLk6GJQsqaUBKTNV-1">
          <mxGeometry x="680" y="920" width="120" height="60" as="geometry" />
        </mxCell>
        <mxCell id="mkPjGn4Q-l5WFXyPitFY-79" style="edgeStyle=orthogonalEdgeStyle;rounded=0;orthogonalLoop=1;jettySize=auto;html=1;entryX=0.5;entryY=0;entryDx=0;entryDy=0;" edge="1" parent="WIyWlLk6GJQsqaUBKTNV-1" source="mkPjGn4Q-l5WFXyPitFY-75" target="mkPjGn4Q-l5WFXyPitFY-78">
          <mxGeometry relative="1" as="geometry" />
        </mxCell>
        <mxCell id="mkPjGn4Q-l5WFXyPitFY-75" value="Прогнозирование рисков влияния внешней среды." style="rounded=0;whiteSpace=wrap;html=1;" vertex="1" parent="WIyWlLk6GJQsqaUBKTNV-1">
          <mxGeometry x="680" y="1010" width="120" height="60" as="geometry" />
        </mxCell>
        <mxCell id="mkPjGn4Q-l5WFXyPitFY-85" style="edgeStyle=orthogonalEdgeStyle;rounded=0;orthogonalLoop=1;jettySize=auto;html=1;" edge="1" parent="WIyWlLk6GJQsqaUBKTNV-1" source="mkPjGn4Q-l5WFXyPitFY-77">
          <mxGeometry relative="1" as="geometry">
            <mxPoint x="740" y="1400" as="targetPoint" />
          </mxGeometry>
        </mxCell>
        <mxCell id="mkPjGn4Q-l5WFXyPitFY-77" value="Моделирование аварийных ситуаций" style="rounded=0;whiteSpace=wrap;html=1;" vertex="1" parent="WIyWlLk6GJQsqaUBKTNV-1">
          <mxGeometry x="680" y="1280" width="120" height="60" as="geometry" />
        </mxCell>
        <mxCell id="mkPjGn4Q-l5WFXyPitFY-80" style="edgeStyle=orthogonalEdgeStyle;rounded=0;orthogonalLoop=1;jettySize=auto;html=1;entryX=0.5;entryY=0;entryDx=0;entryDy=0;" edge="1" parent="WIyWlLk6GJQsqaUBKTNV-1" source="mkPjGn4Q-l5WFXyPitFY-78" target="mkPjGn4Q-l5WFXyPitFY-22">
          <mxGeometry relative="1" as="geometry">
            <Array as="points">
              <mxPoint x="340" y="1150" />
              <mxPoint x="340" y="110" />
              <mxPoint x="740" y="110" />
            </Array>
          </mxGeometry>
        </mxCell>
        <mxCell id="mkPjGn4Q-l5WFXyPitFY-81" value="Недостаточно надёжно" style="edgeLabel;html=1;align=center;verticalAlign=middle;resizable=0;points=[];" vertex="1" connectable="0" parent="mkPjGn4Q-l5WFXyPitFY-80">
          <mxGeometry x="-0.8258" relative="1" as="geometry">
            <mxPoint as="offset" />
          </mxGeometry>
        </mxCell>
        <mxCell id="mkPjGn4Q-l5WFXyPitFY-82" style="edgeStyle=orthogonalEdgeStyle;rounded=0;orthogonalLoop=1;jettySize=auto;html=1;entryX=0.5;entryY=0;entryDx=0;entryDy=0;" edge="1" parent="WIyWlLk6GJQsqaUBKTNV-1" source="mkPjGn4Q-l5WFXyPitFY-78" target="mkPjGn4Q-l5WFXyPitFY-77">
          <mxGeometry relative="1" as="geometry">
            <Array as="points">
              <mxPoint x="850" y="1150" />
              <mxPoint x="850" y="1220" />
              <mxPoint x="740" y="1220" />
            </Array>
          </mxGeometry>
        </mxCell>
        <mxCell id="mkPjGn4Q-l5WFXyPitFY-83" value="Надёжно" style="edgeLabel;html=1;align=center;verticalAlign=middle;resizable=0;points=[];" vertex="1" connectable="0" parent="mkPjGn4Q-l5WFXyPitFY-82">
          <mxGeometry x="0.7596" y="-3" relative="1" as="geometry">
            <mxPoint as="offset" />
          </mxGeometry>
        </mxCell>
        <mxCell id="mkPjGn4Q-l5WFXyPitFY-78" value="Анализ надёжности ракеты для текущей среды" style="rhombus;whiteSpace=wrap;html=1;" vertex="1" parent="WIyWlLk6GJQsqaUBKTNV-1">
          <mxGeometry x="665" y="1110" width="150" height="80" as="geometry" />
        </mxCell>
        <mxCell id="mkPjGn4Q-l5WFXyPitFY-84" value="" style="shape=link;html=1;rounded=0;" edge="1" parent="WIyWlLk6GJQsqaUBKTNV-1">
          <mxGeometry width="100" relative="1" as="geometry">
            <mxPoint x="480" y="1400" as="sourcePoint" />
            <mxPoint x="1020" y="1400" as="targetPoint" />
          </mxGeometry>
        </mxCell>
        <mxCell id="mkPjGn4Q-l5WFXyPitFY-90" style="edgeStyle=orthogonalEdgeStyle;rounded=0;orthogonalLoop=1;jettySize=auto;html=1;exitX=0.5;exitY=0;exitDx=0;exitDy=0;entryX=0.5;entryY=0;entryDx=0;entryDy=0;" edge="1" parent="WIyWlLk6GJQsqaUBKTNV-1" target="mkPjGn4Q-l5WFXyPitFY-86">
          <mxGeometry relative="1" as="geometry">
            <mxPoint x="640.2413793103449" y="1400" as="sourcePoint" />
          </mxGeometry>
        </mxCell>
        <mxCell id="mkPjGn4Q-l5WFXyPitFY-92" style="edgeStyle=orthogonalEdgeStyle;rounded=0;orthogonalLoop=1;jettySize=auto;html=1;entryX=0.5;entryY=0;entryDx=0;entryDy=0;" edge="1" parent="WIyWlLk6GJQsqaUBKTNV-1" source="mkPjGn4Q-l5WFXyPitFY-86" target="mkPjGn4Q-l5WFXyPitFY-87">
          <mxGeometry relative="1" as="geometry" />
        </mxCell>
        <mxCell id="mkPjGn4Q-l5WFXyPitFY-86" value="Моделирование различных аварийных ситуаций (например, отказ двигателя, неисправность системы ориентации)" style="rounded=0;whiteSpace=wrap;html=1;" vertex="1" parent="WIyWlLk6GJQsqaUBKTNV-1">
          <mxGeometry x="580" y="1450" width="120" height="120" as="geometry" />
        </mxCell>
        <mxCell id="mkPjGn4Q-l5WFXyPitFY-95" style="edgeStyle=orthogonalEdgeStyle;rounded=0;orthogonalLoop=1;jettySize=auto;html=1;" edge="1" parent="WIyWlLk6GJQsqaUBKTNV-1" source="mkPjGn4Q-l5WFXyPitFY-87">
          <mxGeometry relative="1" as="geometry">
            <mxPoint x="640" y="1720" as="targetPoint" />
          </mxGeometry>
        </mxCell>
        <mxCell id="mkPjGn4Q-l5WFXyPitFY-87" value="Оценка влияния этих ситуаций на безопасность экипажа." style="rounded=0;whiteSpace=wrap;html=1;" vertex="1" parent="WIyWlLk6GJQsqaUBKTNV-1">
          <mxGeometry x="580" y="1600" width="120" height="60" as="geometry" />
        </mxCell>
        <mxCell id="mkPjGn4Q-l5WFXyPitFY-91" style="edgeStyle=orthogonalEdgeStyle;rounded=0;orthogonalLoop=1;jettySize=auto;html=1;" edge="1" parent="WIyWlLk6GJQsqaUBKTNV-1" target="mkPjGn4Q-l5WFXyPitFY-88">
          <mxGeometry relative="1" as="geometry">
            <mxPoint x="860" y="1400" as="sourcePoint" />
          </mxGeometry>
        </mxCell>
        <mxCell id="mkPjGn4Q-l5WFXyPitFY-93" style="edgeStyle=orthogonalEdgeStyle;rounded=0;orthogonalLoop=1;jettySize=auto;html=1;" edge="1" parent="WIyWlLk6GJQsqaUBKTNV-1" source="mkPjGn4Q-l5WFXyPitFY-88" target="mkPjGn4Q-l5WFXyPitFY-89">
          <mxGeometry relative="1" as="geometry" />
        </mxCell>
        <mxCell id="mkPjGn4Q-l5WFXyPitFY-88" value="Оценка срабатывания аварийных систем (катапульта, экстренная посадка" style="rounded=0;whiteSpace=wrap;html=1;" vertex="1" parent="WIyWlLk6GJQsqaUBKTNV-1">
          <mxGeometry x="800" y="1450" width="120" height="90" as="geometry" />
        </mxCell>
        <mxCell id="mkPjGn4Q-l5WFXyPitFY-96" style="edgeStyle=orthogonalEdgeStyle;rounded=0;orthogonalLoop=1;jettySize=auto;html=1;" edge="1" parent="WIyWlLk6GJQsqaUBKTNV-1" source="mkPjGn4Q-l5WFXyPitFY-89">
          <mxGeometry relative="1" as="geometry">
            <mxPoint x="860" y="1720" as="targetPoint" />
          </mxGeometry>
        </mxCell>
        <mxCell id="mkPjGn4Q-l5WFXyPitFY-89" value="Оценка времени реакции аварийных систем и своевременности их активации." style="rounded=0;whiteSpace=wrap;html=1;" vertex="1" parent="WIyWlLk6GJQsqaUBKTNV-1">
          <mxGeometry x="800" y="1570" width="120" height="90" as="geometry" />
        </mxCell>
        <mxCell id="mkPjGn4Q-l5WFXyPitFY-94" value="" style="shape=link;html=1;rounded=0;" edge="1" parent="WIyWlLk6GJQsqaUBKTNV-1">
          <mxGeometry width="100" relative="1" as="geometry">
            <mxPoint x="480" y="1720" as="sourcePoint" />
            <mxPoint x="1020" y="1720" as="targetPoint" />
          </mxGeometry>
        </mxCell>
        <mxCell id="mkPjGn4Q-l5WFXyPitFY-101" style="edgeStyle=orthogonalEdgeStyle;rounded=0;orthogonalLoop=1;jettySize=auto;html=1;exitX=0.5;exitY=0;exitDx=0;exitDy=0;entryX=0.5;entryY=0;entryDx=0;entryDy=0;" edge="1" parent="WIyWlLk6GJQsqaUBKTNV-1" target="mkPjGn4Q-l5WFXyPitFY-97">
          <mxGeometry relative="1" as="geometry">
            <mxPoint x="740.2413793103449" y="1720" as="sourcePoint" />
          </mxGeometry>
        </mxCell>
        <mxCell id="mkPjGn4Q-l5WFXyPitFY-102" style="edgeStyle=orthogonalEdgeStyle;rounded=0;orthogonalLoop=1;jettySize=auto;html=1;entryX=0.5;entryY=0;entryDx=0;entryDy=0;" edge="1" parent="WIyWlLk6GJQsqaUBKTNV-1" source="mkPjGn4Q-l5WFXyPitFY-97" target="mkPjGn4Q-l5WFXyPitFY-98">
          <mxGeometry relative="1" as="geometry" />
        </mxCell>
        <mxCell id="mkPjGn4Q-l5WFXyPitFY-97" value="Калькуляция вероятности безопасного запуска" style="rounded=0;whiteSpace=wrap;html=1;" vertex="1" parent="WIyWlLk6GJQsqaUBKTNV-1">
          <mxGeometry x="680" y="1780" width="120" height="60" as="geometry" />
        </mxCell>
        <mxCell id="mkPjGn4Q-l5WFXyPitFY-103" style="edgeStyle=orthogonalEdgeStyle;rounded=0;orthogonalLoop=1;jettySize=auto;html=1;entryX=0.5;entryY=0;entryDx=0;entryDy=0;" edge="1" parent="WIyWlLk6GJQsqaUBKTNV-1" source="mkPjGn4Q-l5WFXyPitFY-98" target="mkPjGn4Q-l5WFXyPitFY-100">
          <mxGeometry relative="1" as="geometry" />
        </mxCell>
        <mxCell id="mkPjGn4Q-l5WFXyPitFY-98" value="Оценка показателей риска" style="rounded=0;whiteSpace=wrap;html=1;" vertex="1" parent="WIyWlLk6GJQsqaUBKTNV-1">
          <mxGeometry x="680" y="1860" width="120" height="60" as="geometry" />
        </mxCell>
        <mxCell id="mkPjGn4Q-l5WFXyPitFY-104" style="edgeStyle=orthogonalEdgeStyle;rounded=0;orthogonalLoop=1;jettySize=auto;html=1;entryX=0.5;entryY=0;entryDx=0;entryDy=0;" edge="1" parent="WIyWlLk6GJQsqaUBKTNV-1" source="mkPjGn4Q-l5WFXyPitFY-100" target="mkPjGn4Q-l5WFXyPitFY-20">
          <mxGeometry relative="1" as="geometry" />
        </mxCell>
        <mxCell id="mkPjGn4Q-l5WFXyPitFY-100" value="Выводы и рекомендации" style="rounded=0;whiteSpace=wrap;html=1;" vertex="1" parent="WIyWlLk6GJQsqaUBKTNV-1">
          <mxGeometry x="680" y="1940" width="120" height="60" as="geometry" />
        </mxCell>
        <mxCell id="mkPjGn4Q-l5WFXyPitFY-105" value="Загрузка входных данных:&lt;div&gt;- Параметры ракеты&lt;/div&gt;&lt;div&gt;- Параметры стартовой площадки&lt;/div&gt;&lt;div&gt;- Параметры экипажа&lt;/div&gt;&lt;div&gt;- Параметры внешней среды&lt;/div&gt;&lt;div&gt;- Тех. параметры систем&lt;/div&gt;" style="rounded=0;whiteSpace=wrap;html=1;" vertex="1" parent="WIyWlLk6GJQsqaUBKTNV-1">
          <mxGeometry x="1190" y="120" width="190" height="190" as="geometry" />
        </mxCell>
        <mxCell id="mkPjGn4Q-l5WFXyPitFY-106" value="Анализ надежности:&lt;div&gt;- Ракеты&lt;/div&gt;&lt;div&gt;- Состояния экипажа&lt;/div&gt;&lt;div&gt;&lt;br&gt;&lt;/div&gt;&lt;div&gt;&lt;br&gt;&lt;/div&gt;" style="rounded=0;whiteSpace=wrap;html=1;" vertex="1" parent="WIyWlLk6GJQsqaUBKTNV-1">
          <mxGeometry x="1250" y="310" width="130" height="100" as="geometry" />
        </mxCell>
        <mxCell id="mkPjGn4Q-l5WFXyPitFY-107" value="" style="rounded=0;whiteSpace=wrap;html=1;" vertex="1" parent="WIyWlLk6GJQsqaUBKTNV-1">
          <mxGeometry x="1220" y="310" width="30" height="100" as="geometry" />
        </mxCell>
        <mxCell id="mkPjGn4Q-l5WFXyPitFY-109" value="" style="endArrow=none;html=1;rounded=0;entryX=0;entryY=0.5;entryDx=0;entryDy=0;exitX=0.5;exitY=1;exitDx=0;exitDy=0;" edge="1" parent="WIyWlLk6GJQsqaUBKTNV-1" source="mkPjGn4Q-l5WFXyPitFY-106" target="mkPjGn4Q-l5WFXyPitFY-106">
          <mxGeometry width="50" height="50" relative="1" as="geometry">
            <mxPoint x="1250" y="420" as="sourcePoint" />
            <mxPoint x="1300" y="370" as="targetPoint" />
          </mxGeometry>
        </mxCell>
        <mxCell id="mkPjGn4Q-l5WFXyPitFY-110" value="" style="endArrow=none;html=1;rounded=0;entryX=1;entryY=0.5;entryDx=0;entryDy=0;exitX=0.5;exitY=1;exitDx=0;exitDy=0;" edge="1" parent="WIyWlLk6GJQsqaUBKTNV-1" source="mkPjGn4Q-l5WFXyPitFY-106" target="mkPjGn4Q-l5WFXyPitFY-106">
          <mxGeometry width="50" height="50" relative="1" as="geometry">
            <mxPoint x="1325" y="420" as="sourcePoint" />
            <mxPoint x="1260" y="370" as="targetPoint" />
          </mxGeometry>
        </mxCell>
        <mxCell id="mkPjGn4Q-l5WFXyPitFY-111" value="&lt;div style=&quot;text-align: center;&quot;&gt;&lt;span style=&quot;background-color: initial;&quot;&gt;Надёжно&lt;/span&gt;&lt;/div&gt;" style="text;whiteSpace=wrap;html=1;" vertex="1" parent="WIyWlLk6GJQsqaUBKTNV-1">
          <mxGeometry x="1330" y="390" width="50" height="20" as="geometry" />
        </mxCell>
        <mxCell id="mkPjGn4Q-l5WFXyPitFY-112" value="&lt;div style=&quot;text-align: center;&quot;&gt;&lt;span style=&quot;background-color: initial;&quot;&gt;Нет&lt;/span&gt;&lt;/div&gt;" style="text;whiteSpace=wrap;html=1;" vertex="1" parent="WIyWlLk6GJQsqaUBKTNV-1">
          <mxGeometry x="1250" y="390" width="50" height="20" as="geometry" />
        </mxCell>
        <mxCell id="mkPjGn4Q-l5WFXyPitFY-113" value="Оценка вероятностей:&lt;div&gt;- Отказа работы систем ракетоносителя&lt;/div&gt;&lt;div&gt;- Рисков для здоровья экипажа&lt;/div&gt;" style="rounded=0;whiteSpace=wrap;html=1;" vertex="1" parent="WIyWlLk6GJQsqaUBKTNV-1">
          <mxGeometry x="1220" y="410" width="160" height="120" as="geometry" />
        </mxCell>
        <mxCell id="mkPjGn4Q-l5WFXyPitFY-114" value="&lt;br&gt;Оценка внешних условий" style="rounded=0;whiteSpace=wrap;html=1;" vertex="1" parent="WIyWlLk6GJQsqaUBKTNV-1">
          <mxGeometry x="1220" y="530" width="160" height="50" as="geometry" />
        </mxCell>
        <mxCell id="mkPjGn4Q-l5WFXyPitFY-115" value="Прогнозирование рисков влияния внешней среды." style="rounded=0;whiteSpace=wrap;html=1;" vertex="1" parent="WIyWlLk6GJQsqaUBKTNV-1">
          <mxGeometry x="1220" y="580" width="160" height="50" as="geometry" />
        </mxCell>
        <mxCell id="mkPjGn4Q-l5WFXyPitFY-117" value="Анализ надёжности ракеты для текущей среды&lt;div&gt;&lt;br&gt;&lt;/div&gt;&lt;div&gt;&lt;br&gt;&lt;/div&gt;" style="rounded=0;whiteSpace=wrap;html=1;" vertex="1" parent="WIyWlLk6GJQsqaUBKTNV-1">
          <mxGeometry x="1220" y="630" width="160" height="80" as="geometry" />
        </mxCell>
        <mxCell id="mkPjGn4Q-l5WFXyPitFY-118" value="" style="rounded=0;whiteSpace=wrap;html=1;" vertex="1" parent="WIyWlLk6GJQsqaUBKTNV-1">
          <mxGeometry x="1190" y="310" width="30" height="400" as="geometry" />
        </mxCell>
        <mxCell id="mkPjGn4Q-l5WFXyPitFY-119" value="" style="endArrow=none;html=1;rounded=0;exitX=0;exitY=0.5;exitDx=0;exitDy=0;entryX=0.5;entryY=1;entryDx=0;entryDy=0;" edge="1" parent="WIyWlLk6GJQsqaUBKTNV-1" source="mkPjGn4Q-l5WFXyPitFY-117" target="mkPjGn4Q-l5WFXyPitFY-117">
          <mxGeometry width="50" height="50" relative="1" as="geometry">
            <mxPoint x="1100" y="520" as="sourcePoint" />
            <mxPoint x="1150" y="470" as="targetPoint" />
          </mxGeometry>
        </mxCell>
        <mxCell id="mkPjGn4Q-l5WFXyPitFY-120" value="" style="endArrow=none;html=1;rounded=0;exitX=1;exitY=0.5;exitDx=0;exitDy=0;entryX=0.5;entryY=1;entryDx=0;entryDy=0;" edge="1" parent="WIyWlLk6GJQsqaUBKTNV-1" source="mkPjGn4Q-l5WFXyPitFY-117" target="mkPjGn4Q-l5WFXyPitFY-117">
          <mxGeometry width="50" height="50" relative="1" as="geometry">
            <mxPoint x="1230" y="680" as="sourcePoint" />
            <mxPoint x="1310" y="720" as="targetPoint" />
          </mxGeometry>
        </mxCell>
        <mxCell id="mkPjGn4Q-l5WFXyPitFY-121" value="&lt;div style=&quot;text-align: center;&quot;&gt;&lt;span style=&quot;background-color: initial;&quot;&gt;Нет&lt;/span&gt;&lt;/div&gt;" style="text;whiteSpace=wrap;html=1;" vertex="1" parent="WIyWlLk6GJQsqaUBKTNV-1">
          <mxGeometry x="1220" y="690" width="50" height="20" as="geometry" />
        </mxCell>
        <mxCell id="mkPjGn4Q-l5WFXyPitFY-122" value="&lt;div style=&quot;text-align: center;&quot;&gt;&lt;span style=&quot;background-color: initial;&quot;&gt;Надёжно&lt;/span&gt;&lt;/div&gt;" style="text;whiteSpace=wrap;html=1;" vertex="1" parent="WIyWlLk6GJQsqaUBKTNV-1">
          <mxGeometry x="1330" y="690" width="50" height="20" as="geometry" />
        </mxCell>
        <mxCell id="mkPjGn4Q-l5WFXyPitFY-123" value="Моделирование аварийных ситуаций" style="rounded=0;whiteSpace=wrap;html=1;" vertex="1" parent="WIyWlLk6GJQsqaUBKTNV-1">
          <mxGeometry x="1190" y="710" width="190" height="70" as="geometry" />
        </mxCell>
        <mxCell id="mkPjGn4Q-l5WFXyPitFY-124" value="Оценка рисков протекаемых процессов" style="rounded=0;whiteSpace=wrap;html=1;" vertex="1" parent="WIyWlLk6GJQsqaUBKTNV-1">
          <mxGeometry x="1190" y="780" width="190" height="60" as="geometry" />
        </mxCell>
        <mxCell id="mkPjGn4Q-l5WFXyPitFY-125" value="Калькуляция вероятности безопасного запуска" style="rounded=0;whiteSpace=wrap;html=1;" vertex="1" parent="WIyWlLk6GJQsqaUBKTNV-1">
          <mxGeometry x="1190" y="840" width="190" height="60" as="geometry" />
        </mxCell>
        <mxCell id="mkPjGn4Q-l5WFXyPitFY-126" value="Оценка показателей риска" style="rounded=0;whiteSpace=wrap;html=1;" vertex="1" parent="WIyWlLk6GJQsqaUBKTNV-1">
          <mxGeometry x="1190" y="900" width="190" height="60" as="geometry" />
        </mxCell>
        <mxCell id="mkPjGn4Q-l5WFXyPitFY-127" value="Оценка показателей риска" style="rounded=0;whiteSpace=wrap;html=1;" vertex="1" parent="WIyWlLk6GJQsqaUBKTNV-1">
          <mxGeometry x="1190" y="960" width="190" height="60" as="geometry" />
        </mxCell>
      </root>
    </mxGraphModel>
  </diagram>
</mxfile>
